<?xml version="1.0" encoding="UTF-8" standalone="no"?>
<!DOCTYPE svg PUBLIC "-//W3C//DTD SVG 1.1//EN" "http://www.w3.org/Graphics/SVG/1.1/DTD/svg11.dtd">
<svg width="100%" height="100%" viewBox="0 0 2481 1749" version="1.1" xmlns="http://www.w3.org/2000/svg" xmlns:xlink="http://www.w3.org/1999/xlink" xml:space="preserve" xmlns:serif="http://www.serif.com/" style="fill-rule:evenodd;clip-rule:evenodd;stroke-linejoin:round;stroke-miterlimit:1.5;">
    <path d="M-120.03,1085.24L2640.4,1085.24" style="fill:none;stroke:rgb(250,208,208);stroke-width:119.43px;"/>
    <g transform="matrix(1,0,0,1,0,-299.663)">
        <path d="M-120.03,1085.24L2640.4,1085.24" style="fill:none;stroke:rgb(250,208,208);stroke-width:119.43px;"/>
    </g>
    <g transform="matrix(1,0,0,1,0,-299.663)">
        <path d="M-120.03,1085.24L2640.4,1085.24" style="fill:none;stroke:rgb(204,0,0);stroke-width:3.75px;stroke-dasharray:7.5,11.25,0,0,0,0;"/>
    </g>
    <path d="M-120.03,1085.24L2640.4,1085.24" style="fill:none;stroke:rgb(203,0,0);stroke-width:3.75px;stroke-dasharray:7.5,11.25,0,0,0,0;"/>
    <g transform="matrix(1.15703,0,0,0.872171,-103.235,196.8)">
        <path d="M114.082,1523.29C197.495,1147.44 364.321,395.75 481.377,280.934C598.432,166.118 712.713,775.835 816.416,834.388C918.351,891.943 1012.75,653.044 1103.59,632.249C1191.08,612.223 1284.22,755.299 1361.47,709.618C1452.86,655.574 1526.29,200.695 1651.93,307.987C1791.04,426.776 2061.09,1090.5 2196.11,1422.36" style="fill:none;stroke:rgb(176,158,0);stroke-width:3.49px;stroke-linecap:round;stroke-dasharray:6.98,10.47,0,0,0,0;"/>
    </g>
    <g transform="matrix(1.15703,0,0,0.872171,-103.235,-51.8778)">
        <path d="M114.082,1523.29C197.495,1147.44 364.321,395.75 481.377,280.934C598.432,166.118 712.713,775.835 816.416,834.388C918.351,891.943 1012.75,653.044 1103.59,632.249C1191.08,612.223 1284.22,755.299 1361.47,709.618C1452.86,655.574 1526.29,200.695 1651.93,307.987C1791.04,426.776 2061.09,1090.5 2196.11,1422.36" style="fill:none;stroke:rgb(255,236,37);stroke-width:11.41px;stroke-linecap:round;"/>
    </g>
    <g transform="matrix(1,0,0,0.296835,-134.224,1002.82)">
        <path d="M315.938,73.875L315.938,1770.92" style="fill:none;stroke:rgb(253,0,0);stroke-width:1.69px;stroke-dasharray:8.47,8.47,0,0,0,0;"/>
    </g>
    <g transform="matrix(1,0,0,0.0352546,-23.9314,723.141)">
        <path d="M315.938,73.875L315.938,1770.92" style="fill:none;stroke:rgb(253,0,0);stroke-width:5.3px;stroke-dasharray:10.6,10.6,0,0,0,0;"/>
    </g>
    <g transform="matrix(1,0,0,0.0352546,1232.99,723.141)">
        <path d="M315.938,73.875L315.938,1770.92" style="fill:none;stroke:rgb(253,0,0);stroke-width:5.3px;stroke-dasharray:10.6,10.6,0,0,0,0;"/>
    </g>
    <g transform="matrix(1,0,0,0.284661,1961.33,1024.37)">
        <path d="M315.938,73.875L315.938,1770.92" style="fill:none;stroke:rgb(253,0,0);stroke-width:1.7px;stroke-dasharray:8.5,8.5,0,0,0,0;"/>
    </g>
    <path d="M181.714,1528.49L181.714,1085.24L292.006,1085.24L292.006,785.574L767.513,785.574L767.513,1085.24L1548.92,1085.24L1548.92,785.574L2103.51,785.574L2103.51,1085.24L2277.27,1085.24L2277.27,1528.49" style="fill:none;stroke:rgb(254,0,0);stroke-width:3.75px;"/>
    <g transform="matrix(1,0,0,1,-772.061,-328.656)">
        <g transform="matrix(1,-0,-0,1,772.061,328.656)">
            <path d="M482.501,420.548L488.126,426.173L493.751,420.548" style="fill:none;stroke:black;stroke-width:3.75px;stroke-linejoin:miter;stroke-miterlimit:10;"/>
            <path d="M482.501,195.706L488.126,190.081L493.751,195.706" style="fill:none;stroke:black;stroke-width:3.75px;stroke-linejoin:miter;stroke-miterlimit:10;"/>
            <path d="M488.126,426.173L488.126,190.081" style="fill:none;stroke:black;stroke-width:3.75px;"/>
        </g>
    </g>
    <g transform="matrix(1,0,0,0.134883,-673.214,389.764)">
        <g transform="matrix(1,-0,-0,7.41382,673.214,-2889.64)">
            <path d="M1177.89,479.168L1172.27,484.793L1166.64,479.168" style="fill:none;stroke:black;stroke-width:3.75px;stroke-linejoin:miter;stroke-miterlimit:10;"/>
            <path d="M1172.27,457.27L1172.27,484.793" style="fill:none;stroke:black;stroke-width:3.75px;"/>
        </g>
    </g>
    <g transform="matrix(-1,-1.22465e-16,1.65184e-17,-0.134883,3017.74,1195.73)">
        <g transform="matrix(-1,9.0793e-16,-1.22465e-16,-7.41382,3017.74,8864.92)">
            <path d="M1166.64,1106.33L1172.27,1100.7L1177.89,1106.33" style="fill:none;stroke:black;stroke-width:3.75px;stroke-linejoin:miter;stroke-miterlimit:10;"/>
            <path d="M1172.27,1179.44L1172.27,1100.7" style="fill:none;stroke:black;stroke-width:3.75px;"/>
        </g>
    </g>
    <g transform="matrix(-1,-1.22465e-16,1.65184e-17,-0.134883,2964.42,971.696)">
        <g transform="matrix(-1,9.0793e-16,-1.22465e-16,-7.41382,2964.42,7203.98)">
            <path d="M1468.82,795.581L1470.3,787.765L1478.11,789.248" style="fill:none;stroke:black;stroke-width:3.75px;stroke-linejoin:miter;stroke-miterlimit:10;"/>
            <path d="M1798.64,1269.88C1798.64,1269.88 1494.26,822.946 1470.3,787.765" style="fill:none;stroke:black;stroke-width:3.75px;"/>
        </g>
    </g>
    <g transform="matrix(-1,-1.22465e-16,1.65184e-17,-0.134883,2964.42,971.696)">
        <g transform="matrix(-1,9.0793e-16,-1.22465e-16,-7.41382,2964.42,7203.98)">
            <path d="M1622.66,1095.1L1622.82,1087.15L1630.77,1087.3" style="fill:none;stroke:black;stroke-width:3.75px;stroke-linejoin:miter;stroke-miterlimit:10;"/>
            <path d="M1798.64,1269.88C1798.64,1269.88 1641.64,1106.71 1622.82,1087.15" style="fill:none;stroke:black;stroke-width:3.75px;"/>
        </g>
    </g>
    <g transform="matrix(1,0,0,0.5,-920.081,470.612)">
        <g transform="matrix(1,-0,-0,2,920.081,-941.223)">
            <path d="M334.481,841.075L340.106,846.7L345.731,841.075" style="fill:none;stroke:black;stroke-width:3.75px;stroke-linejoin:miter;stroke-miterlimit:10;"/>
            <path d="M334.481,736.931L340.106,731.306L345.731,736.931" style="fill:none;stroke:black;stroke-width:3.75px;stroke-linejoin:miter;stroke-miterlimit:10;"/>
            <path d="M340.106,846.7L340.106,731.306" style="fill:none;stroke:black;stroke-width:3.75px;"/>
        </g>
    </g>
    <g transform="matrix(1,0,0,1,-792.488,-304.81)">
        <g transform="matrix(45.8333,0,0,45.8333,1496.23,630.54)">
        </g>
        <text x="1289.84px" y="630.54px" style="font-family:'ArialMT', 'Arial', sans-serif;font-size:45.833px;">headroom</text>
    </g>
    <g transform="matrix(1,0,0,1,-942.189,199.166)">
        <g transform="matrix(45.8333,0,0,45.8333,1638.85,630.54)">
        </g>
        <text x="1289.84px" y="630.54px" style="font-family:'ArialMT', 'Arial', sans-serif;font-size:45.833px;">hysteresis span *</text>
    </g>
    <g transform="matrix(1,0,0,1,745.516,-349.591)">
        <g transform="matrix(50,0,0,50,724.283,1564.83)">
        </g>
        <text x="126.7px" y="1564.83px" style="font-family:'ArialMT', 'Arial', sans-serif;font-size:50px;">expected consumed power</text>
    </g>
    <g transform="matrix(1,0,0,1,1495.33,-254.77)">
        <text x="126.7px" y="1564.83px" style="font-family:'ArialMT', 'Arial', sans-serif;font-size:45.833px;">possible levels of</text>
        <g transform="matrix(45.8333,0,0,45.8333,475.732,1612.16)">
        </g>
        <text x="126.7px" y="1612.16px" style="font-family:'ArialMT', 'Arial', sans-serif;font-size:45.833px;">consumed power</text>
    </g>
    <g transform="matrix(1,0,0,1,856.663,-1120.49)">
        <g transform="matrix(50,0,0,50,499.112,1564.83)">
        </g>
        <text x="126.7px" y="1564.83px" style="font-family:'ArialMT', 'Arial', sans-serif;font-size:50px;">measured power</text>
    </g>
    <g transform="matrix(1,0,0,1,1161.53,49.3614)">
        <text x="-1146.23px" y="1637.97px" style="font-family:'ArialMT', 'Arial', sans-serif;font-size:29.167px;">* not technically how hysteresis is supposed to work, as it should be relative to the input (measured power) instead of the output (expected consumer power)</text>
        <g transform="matrix(29.1667,0,0,29.1667,364.629,1668.09)">
        </g>
        <text x="-1131.63px" y="1668.09px" style="font-family:'ArialMT', 'Arial', sans-serif;font-size:29.167px;"><tspan x="-1131.63px -1112.18px " y="1668.09px 1668.09px ">Al</tspan>so hysteresis is continous and not this stepped thing. But I didn&apos;t know what else to call this, and it&apos;s close enough.</text>
    </g>
</svg>
