<?xml version="1.0" encoding="UTF-8" standalone="no"?>
<!DOCTYPE svg PUBLIC "-//W3C//DTD SVG 1.1//EN" "http://www.w3.org/Graphics/SVG/1.1/DTD/svg11.dtd">
<svg width="100%" height="100%" viewBox="0 0 2481 1749" version="1.1" xmlns="http://www.w3.org/2000/svg" xmlns:xlink="http://www.w3.org/1999/xlink" xml:space="preserve" xmlns:serif="http://www.serif.com/" style="fill-rule:evenodd;clip-rule:evenodd;stroke-linejoin:round;stroke-miterlimit:1.5;">
    <g transform="matrix(1,0,0,1,0,-299.663)">
        <path d="M-120.03,1085.24L2640.4,1085.24" style="fill:none;stroke:rgb(204,0,0);stroke-width:3.75px;stroke-dasharray:7.5,11.25,0,0,0,0;"/>
    </g>
    <path d="M-120.03,1085.24L2640.4,1085.24" style="fill:none;stroke:rgb(203,0,0);stroke-width:3.75px;stroke-dasharray:7.5,11.25,0,0,0,0;"/>
    <g transform="matrix(1.15703,0,0,0.872171,-103.235,196.8)">
        <path d="M114.082,1523.29C197.495,1147.44 364.321,395.75 481.377,280.934C598.432,166.118 712.713,775.835 816.416,834.388C918.351,891.943 1012.75,653.044 1103.59,632.249C1191.08,612.223 1284.22,755.299 1361.47,709.618C1452.86,655.574 1526.29,200.695 1651.93,307.987C1791.04,426.776 2061.09,1090.5 2196.11,1422.36" style="fill:none;stroke:rgb(176,158,0);stroke-width:3.49px;stroke-linecap:round;stroke-dasharray:6.98,10.47,0,0,0,0;"/>
    </g>
    <g transform="matrix(1.15703,0,0,0.872171,-99.7432,-52.5761)">
        <path d="M114.082,1523.29C197.495,1147.44 364.321,395.75 481.377,280.934C598.432,166.118 712.713,775.835 816.416,834.388C918.351,891.943 1012.75,653.044 1103.59,632.249C1191.08,612.223 1284.22,755.299 1361.47,709.618C1452.86,655.574 1526.29,200.695 1651.93,307.987C1791.04,426.776 2061.09,1090.5 2196.11,1422.36" style="fill:none;stroke:rgb(255,236,37);stroke-width:11.41px;stroke-linecap:round;"/>
    </g>
    <g transform="matrix(1,0,0,0.348167,920.21,316.631)">
        <path d="M183.569,1345.72L183.569,1216.25" style="fill:none;stroke:black;stroke-width:1.43px;"/>
    </g>
    <g transform="matrix(1,0,0,0.348167,1169.52,316.631)">
        <path d="M183.569,1345.72L183.569,1216.25" style="fill:none;stroke:black;stroke-width:1.43px;"/>
    </g>
    <g transform="matrix(1,0,0,0.348167,1136.79,316.631)">
        <path d="M183.569,1345.72L183.569,1216.25" style="fill:none;stroke:black;stroke-width:1.43px;"/>
    </g>
    <g transform="matrix(1,0,0,0.348167,1328.68,316.631)">
        <path d="M183.569,1345.72L183.569,1216.25" style="fill:none;stroke:black;stroke-width:1.43px;"/>
    </g>
    <g transform="matrix(1,0,0,0.348167,1569,316.631)">
        <path d="M183.569,1345.72L183.569,1216.25" style="fill:none;stroke:black;stroke-width:1.43px;"/>
    </g>
    <path d="M405.927,1528.49L405.927,1085.24L506.348,1085.24L506.348,785.574L823.699,785.574L823.699,1085.24L1754.14,1085.24L1754.14,785.574L2157.61,785.574L2157.61,1085.24L2339.7,1085.24L2339.7,1528.49" style="fill:none;stroke:rgb(254,0,0);stroke-width:3.75px;"/>
    <g transform="matrix(1,0,0,1,-772.061,-328.656)">
        <g transform="matrix(1,-0,-0,1,772.061,328.656)">
            <path d="M482.501,420.548L488.126,426.173L493.751,420.548" style="fill:none;stroke:black;stroke-width:3.75px;stroke-linejoin:miter;stroke-miterlimit:10;"/>
            <path d="M482.501,195.706L488.126,190.081L493.751,195.706" style="fill:none;stroke:black;stroke-width:3.75px;stroke-linejoin:miter;stroke-miterlimit:10;"/>
            <path d="M488.126,426.173L488.126,190.081" style="fill:none;stroke:black;stroke-width:3.75px;"/>
        </g>
    </g>
    <g transform="matrix(-1.83697e-16,-1,1,-1.83697e-16,-352.236,2299.7)">
        <g transform="matrix(-1.83697e-16,1,-1,-1.83697e-16,2299.7,352.236)">
            <path d="M396.967,1045.14L402.592,1039.52L396.967,1033.89" style="fill:none;stroke:black;stroke-width:3.75px;stroke-linejoin:miter;stroke-miterlimit:10;"/>
            <path d="M172.126,1045.14L166.501,1039.52L172.126,1033.89" style="fill:none;stroke:black;stroke-width:3.75px;stroke-linejoin:miter;stroke-miterlimit:10;"/>
            <path d="M402.592,1039.52L166.501,1039.52" style="fill:none;stroke:black;stroke-width:3.75px;"/>
        </g>
    </g>
    <g transform="matrix(-1.83697e-16,-1,1,-1.83697e-16,-249.504,2000.27)">
        <g transform="matrix(-1.83697e-16,1,-1,-1.83697e-16,2000.27,249.504)">
            <path d="M499.699,745.713L505.324,740.088L499.699,734.463" style="fill:none;stroke:black;stroke-width:3.75px;stroke-linejoin:miter;stroke-miterlimit:10;"/>
            <path d="M274.858,745.713L269.233,740.088L274.858,734.463" style="fill:none;stroke:black;stroke-width:3.75px;stroke-linejoin:miter;stroke-miterlimit:10;"/>
            <path d="M505.324,740.088L269.233,740.088" style="fill:none;stroke:black;stroke-width:3.75px;"/>
        </g>
    </g>
    <g transform="matrix(-1.83697e-16,-1,1,-1.83697e-16,588.709,2000.27)">
        <g transform="matrix(-1.83697e-16,1,-1,-1.83697e-16,2000.27,-588.709)">
            <path d="M1345.07,745.713L1350.69,740.088L1345.07,734.463" style="fill:none;stroke:black;stroke-width:3.75px;stroke-linejoin:miter;stroke-miterlimit:10;"/>
            <path d="M1110.45,745.713L1104.83,740.088L1110.45,734.463" style="fill:none;stroke:black;stroke-width:3.75px;stroke-linejoin:miter;stroke-miterlimit:10;"/>
            <path d="M1350.69,740.088L1104.83,740.088" style="fill:none;stroke:black;stroke-width:3.75px;"/>
        </g>
    </g>
    <g transform="matrix(-1.83697e-16,-1,1,-1.83697e-16,995.665,2000.27)">
        <g transform="matrix(-1.83697e-16,1,-1,-1.83697e-16,2000.27,-995.665)">
            <path d="M1744.87,745.713L1750.49,740.088L1744.87,734.463" style="fill:none;stroke:black;stroke-width:3.75px;stroke-linejoin:miter;stroke-miterlimit:10;"/>
            <path d="M1520.03,745.713L1514.4,740.088L1520.03,734.463" style="fill:none;stroke:black;stroke-width:3.75px;stroke-linejoin:miter;stroke-miterlimit:10;"/>
            <path d="M1750.49,740.088L1514.4,740.088" style="fill:none;stroke:black;stroke-width:3.75px;"/>
        </g>
    </g>
    <g transform="matrix(-6.48543e-16,-1,0.386924,3.93769e-16,2044.53,2299.3)">
        <g transform="matrix(1.01769e-15,2.58448,-1,-1.67615e-15,2299.3,-5284.06)">
            <path d="M2329.34,1044.74L2334.97,1039.11L2329.34,1033.49" style="fill:none;stroke:black;stroke-width:3.75px;stroke-linejoin:miter;stroke-miterlimit:10;"/>
            <path d="M2252.49,1044.74L2246.87,1039.11L2252.49,1033.49" style="fill:none;stroke:black;stroke-width:3.75px;stroke-linejoin:miter;stroke-miterlimit:10;"/>
            <path d="M2334.97,1039.11L2246.87,1039.11" style="fill:none;stroke:black;stroke-width:3.75px;"/>
        </g>
    </g>
    <g transform="matrix(-6.48543e-16,-1,0.386924,3.93769e-16,1863.88,2000.27)">
        <g transform="matrix(1.01769e-15,2.58448,-1,-1.67615e-15,2000.27,-4817.16)">
            <path d="M2148.69,745.713L2154.31,740.088L2148.69,734.463" style="fill:none;stroke:black;stroke-width:3.75px;stroke-linejoin:miter;stroke-miterlimit:10;"/>
            <path d="M2071.84,745.713L2066.21,740.088L2071.84,734.463" style="fill:none;stroke:black;stroke-width:3.75px;stroke-linejoin:miter;stroke-miterlimit:10;"/>
            <path d="M2154.31,740.088L2066.21,740.088" style="fill:none;stroke:black;stroke-width:3.75px;"/>
        </g>
    </g>
    <g transform="matrix(-6.48543e-16,-1,0.386924,3.93769e-16,531.652,2000.27)">
        <g transform="matrix(1.01769e-15,2.58448,-1,-1.67615e-15,2000.27,-1374.05)">
            <path d="M816.463,745.713L822.088,740.088L816.463,734.463" style="fill:none;stroke:black;stroke-width:3.75px;stroke-linejoin:miter;stroke-miterlimit:10;"/>
            <path d="M739.615,745.713L733.99,740.088L739.615,734.463" style="fill:none;stroke:black;stroke-width:3.75px;stroke-linejoin:miter;stroke-miterlimit:10;"/>
            <path d="M822.088,740.088L733.99,740.088" style="fill:none;stroke:black;stroke-width:3.75px;"/>
        </g>
    </g>
    <g transform="matrix(1,0,0,0.134883,-673.214,389.764)">
        <g transform="matrix(1,-0,-0,7.41382,673.214,-2889.64)">
            <path d="M1177.89,479.168L1172.27,484.793L1166.64,479.168" style="fill:none;stroke:black;stroke-width:3.75px;stroke-linejoin:miter;stroke-miterlimit:10;"/>
            <path d="M1172.27,457.27L1172.27,484.793" style="fill:none;stroke:black;stroke-width:3.75px;"/>
        </g>
    </g>
    <g transform="matrix(-1,-1.22465e-16,1.65184e-17,-0.134883,3196.84,1195.73)">
        <g transform="matrix(-1,9.0793e-16,-1.22465e-16,-7.41382,3196.84,8864.92)">
            <path d="M1345.74,1106.33L1351.36,1100.7L1356.99,1106.33" style="fill:none;stroke:black;stroke-width:3.75px;stroke-linejoin:miter;stroke-miterlimit:10;"/>
            <path d="M1351.36,1179.44L1351.36,1100.7" style="fill:none;stroke:black;stroke-width:3.75px;"/>
        </g>
    </g>
    <g transform="matrix(-1,-1.22465e-16,1.65184e-17,-0.134883,2964.42,971.696)">
        <g transform="matrix(-1,9.0793e-16,-1.22465e-16,-7.41382,2964.42,7203.98)">
            <path d="M1468.82,795.581L1470.3,787.765L1478.11,789.248" style="fill:none;stroke:black;stroke-width:3.75px;stroke-linejoin:miter;stroke-miterlimit:10;"/>
            <path d="M1798.64,1269.88C1798.64,1269.88 1494.26,822.946 1470.3,787.765" style="fill:none;stroke:black;stroke-width:3.75px;"/>
        </g>
    </g>
    <g transform="matrix(-1,-1.22465e-16,1.65184e-17,-0.134883,2964.42,971.696)">
        <g transform="matrix(-1,9.0793e-16,-1.22465e-16,-7.41382,2964.42,7203.98)">
            <path d="M1622.66,1095.1L1622.82,1087.15L1630.77,1087.3" style="fill:none;stroke:black;stroke-width:3.75px;stroke-linejoin:miter;stroke-miterlimit:10;"/>
            <path d="M1798.64,1269.88C1798.64,1269.88 1641.64,1106.71 1622.82,1087.15" style="fill:none;stroke:black;stroke-width:3.75px;"/>
        </g>
    </g>
    <g transform="matrix(-0.985482,0.0120213,0.00162147,-0.133541,3460.24,145.291)">
        <g transform="matrix(-1.01488,-0.0913592,-0.0123228,-7.48946,3513.53,1404.28)">
            <path d="M2287.51,1022.87L2288.77,1030.72L2280.92,1031.98" style="fill:none;stroke:black;stroke-width:3.75px;stroke-linejoin:miter;stroke-miterlimit:10;"/>
            <path d="M1754.14,643.779C1754.14,643.779 2251.95,1004.07 2288.77,1030.72" style="fill:none;stroke:black;stroke-width:3.75px;"/>
        </g>
    </g>
    <g transform="matrix(-1,-1.22465e-16,1.65184e-17,-0.134883,2700.18,1043.79)">
        <g transform="matrix(-1,9.0793e-16,-1.22465e-16,-7.41382,2700.18,7738.46)">
            <path d="M280.548,1058.84L277.451,1051.51L284.779,1048.41" style="fill:none;stroke:black;stroke-width:3.75px;stroke-linejoin:miter;stroke-miterlimit:10;"/>
            <path d="M846.041,1282.3C846.041,1282.3 317.97,1067.95 277.451,1051.51" style="fill:none;stroke:black;stroke-width:3.75px;"/>
        </g>
    </g>
    <g transform="matrix(-1,-1.22465e-16,1.65184e-17,-0.134883,2700.18,1043.79)">
        <g transform="matrix(-1,9.0793e-16,-1.22465e-16,-7.41382,2700.18,7738.46)">
            <path d="M406.861,759.451L407.615,751.532L415.534,752.287" style="fill:none;stroke:black;stroke-width:3.75px;stroke-linejoin:miter;stroke-miterlimit:10;"/>
            <path d="M846.041,1282.3C846.041,1282.3 437.216,787.368 407.615,751.532" style="fill:none;stroke:black;stroke-width:3.75px;"/>
        </g>
    </g>
    <g transform="matrix(-1,-1.22465e-16,1.65184e-17,-0.134883,2702.18,1040.79)">
        <g transform="matrix(-1,9.0793e-16,-1.22465e-16,-7.41382,2702.18,7716.22)">
            <path d="M1260.61,749.482L1268.51,748.566L1269.42,756.468" style="fill:none;stroke:black;stroke-width:3.75px;stroke-linejoin:miter;stroke-miterlimit:10;"/>
            <path d="M848.041,1279.3C848.041,1279.3 1239.9,784.68 1268.51,748.566" style="fill:none;stroke:black;stroke-width:3.75px;"/>
        </g>
    </g>
    <g transform="matrix(-1,-1.22465e-16,1.65184e-17,-0.134883,2700.18,1043.79)">
        <g transform="matrix(-1,9.0793e-16,-1.22465e-16,-7.41382,2700.18,7738.46)">
            <path d="M1638.78,749.378L1646.58,750.954L1645,758.751" style="fill:none;stroke:black;stroke-width:3.75px;stroke-linejoin:miter;stroke-miterlimit:10;"/>
            <path d="M846.041,1282.3C846.041,1282.3 1600.41,781.599 1646.58,750.954" style="fill:none;stroke:black;stroke-width:3.75px;"/>
        </g>
    </g>
    <g transform="matrix(-1,-1.22465e-16,1.65184e-17,-0.134883,3479.46,159.208)">
        <g transform="matrix(-1,9.0793e-16,-1.22465e-16,-7.41382,3479.46,1180.34)">
            <path d="M2103.59,725.101L2107.69,731.92L2100.87,736.017" style="fill:none;stroke:black;stroke-width:3.75px;stroke-linejoin:miter;stroke-miterlimit:10;"/>
            <path d="M1754.14,643.779C1754.14,643.779 2075.6,723.92 2107.69,731.92" style="fill:none;stroke:black;stroke-width:3.75px;"/>
        </g>
    </g>
    <g transform="matrix(-1,-1.22465e-16,1.65184e-17,-0.134883,3495.46,159.208)">
        <g transform="matrix(-1,9.0793e-16,-1.22465e-16,-7.41382,3495.46,1180.34)">
            <path d="M806.924,737.397L800.803,732.316L805.884,726.195" style="fill:none;stroke:black;stroke-width:3.75px;stroke-linejoin:miter;stroke-miterlimit:10;"/>
            <path d="M1754.14,643.779C1754.14,643.779 855.879,727.201 800.803,732.316" style="fill:none;stroke:black;stroke-width:3.75px;"/>
        </g>
    </g>
    <g transform="matrix(1,0,0,1,-792.488,-304.81)">
        <g transform="matrix(45.8333,0,0,45.8333,1496.23,630.54)">
        </g>
        <text x="1289.84px" y="630.54px" style="font-family:'ArialMT', 'Arial', sans-serif;font-size:45.833px;">headroom</text>
    </g>
    <g transform="matrix(1,0,0,1,924.611,-349.591)">
        <g transform="matrix(50,0,0,50,724.283,1564.83)">
        </g>
        <text x="126.7px" y="1564.83px" style="font-family:'ArialMT', 'Arial', sans-serif;font-size:50px;">expected consumed power</text>
    </g>
    <g transform="matrix(1,0,0,1,1495.33,-254.77)">
        <text x="126.7px" y="1564.83px" style="font-family:'ArialMT', 'Arial', sans-serif;font-size:45.833px;">possible levels of</text>
        <g transform="matrix(45.8333,0,0,45.8333,475.732,1612.16)">
        </g>
        <text x="126.7px" y="1612.16px" style="font-family:'ArialMT', 'Arial', sans-serif;font-size:45.833px;">consumed power</text>
    </g>
    <g transform="matrix(1,0,0,1,856.663,-1120.49)">
        <g transform="matrix(50,0,0,50,499.112,1564.83)">
        </g>
        <text x="126.7px" y="1564.83px" style="font-family:'ArialMT', 'Arial', sans-serif;font-size:50px;">measured power</text>
    </g>
    <g transform="matrix(1,0,0,1,1461.45,-933.983)">
        <g transform="matrix(50,0,0,50,718.741,1564.83)">
        </g>
        <text x="-92.929px" y="1564.83px" style="font-family:'ArialMT', 'Arial', sans-serif;font-size:50px;">power_decrease_threshold_duration</text>
    </g>
    <g transform="matrix(1,0,0,1,533.208,-235.433)">
        <g transform="matrix(50,0,0,50,710.392,1564.83)">
        </g>
        <text x="-84.579px" y="1564.83px" style="font-family:'ArialMT', 'Arial', sans-serif;font-size:50px;">power_increase_threshold_duration</text>
    </g>
    <g transform="matrix(1.45994,0,0,1.45994,-542.039,-461.761)">
        <g transform="matrix(29.1667,0,0,29.1667,1292.78,830.781)">
        </g>
        <text x="1278.2px" y="830.781px" style="font-family:'ArialMT', 'Arial', sans-serif;font-size:29.167px;">x</text>
    </g>
    <g transform="matrix(1,0,0,0.348167,-18.638,616.06)">
        <path d="M183.569,1345.72L183.569,1216.25" style="fill:none;stroke:black;stroke-width:1.43px;"/>
    </g>
    <g transform="matrix(1,0,0,0.348167,221.675,616.06)">
        <path d="M183.569,1345.72L183.569,1216.25" style="fill:none;stroke:black;stroke-width:1.43px;"/>
    </g>
    <g transform="matrix(1,0,0,0.348167,83.1921,316.631)">
        <path d="M183.569,1345.72L183.569,1216.25" style="fill:none;stroke:black;stroke-width:1.43px;"/>
    </g>
    <g transform="matrix(1,0,0,0.348167,323.505,316.631)">
        <path d="M183.569,1345.72L183.569,1216.25" style="fill:none;stroke:black;stroke-width:1.43px;"/>
    </g>
    <g transform="matrix(1,0,0,0.348167,549.913,316.631)">
        <path d="M183.569,1345.72L183.569,1216.25" style="fill:none;stroke:black;stroke-width:1.43px;"/>
    </g>
    <g transform="matrix(1,0,0,0.348167,640.714,316.631)">
        <path d="M183.569,1345.72L183.569,1216.25" style="fill:none;stroke:black;stroke-width:1.43px;"/>
    </g>
    <g transform="matrix(1,0,0,0.348167,1882.59,316.631)">
        <path d="M183.569,1345.72L183.569,1216.25" style="fill:none;stroke:black;stroke-width:1.43px;"/>
    </g>
    <g transform="matrix(1,0,0,0.348167,1973.39,316.631)">
        <path d="M183.569,1345.72L183.569,1216.25" style="fill:none;stroke:black;stroke-width:1.43px;"/>
    </g>
    <g transform="matrix(1,0,0,0.348167,2062.41,615.656)">
        <path d="M183.569,1345.72L183.569,1216.25" style="fill:none;stroke:black;stroke-width:1.43px;"/>
    </g>
    <g transform="matrix(1,0,0,0.348167,2153.21,615.656)">
        <path d="M183.569,1345.72L183.569,1216.25" style="fill:none;stroke:black;stroke-width:1.43px;"/>
    </g>
</svg>
